<?xml version="1.0" standalone="no"?>
<!DOCTYPE svg PUBLIC "-//W3C//DTD SVG 20010904//EN"
 "http://www.w3.org/TR/2001/REC-SVG-20010904/DTD/svg10.dtd">
<svg version="1.0" xmlns="http://www.w3.org/2000/svg"
 width="619.000000pt" height="154.000000pt" viewBox="0 0 619.000000 154.000000"
 preserveAspectRatio="xMidYMid meet">
<metadata>
Created by potrace 1.16, written by Peter Selinger 2001-2019
</metadata>
<g transform="translate(0.000000,154.000000) scale(0.100000,-0.100000)"
fill="#000000" stroke="none">
<path d="M2490 825 l0 -456 58 3 57 3 3 453 2 452 -60 0 -60 0 0 -455z"/>
<path d="M2722 828 l3 -453 55 0 55 0 2 135 c1 74 3 138 3 143 0 4 11 7 25 7
20 0 59 -34 166 -140 l140 -140 82 0 82 0 -168 168 -167 167 165 165 c91 91
165 168 165 172 0 5 -35 8 -78 8 l-77 0 -145 -145 c-101 -101 -152 -145 -167
-145 -13 0 -23 3 -23 8 0 4 -1 117 -3 252 l-2 245 -58 3 -57 3 2 -453z"/>
<path d="M1950 1044 c-138 -37 -224 -130 -250 -272 -37 -207 119 -394 330
-395 78 0 175 28 200 58 20 24 29 18 32 -22 l3 -38 55 0 55 0 3 334 c2 237 -1
337 -9 341 -6 4 -32 7 -57 6 -47 -1 -47 -1 -50 -38 -2 -21 -6 -38 -9 -38 -3 0
-18 9 -33 20 -69 49 -181 67 -270 44z m178 -126 c171 -86 172 -317 1 -403
-214 -109 -423 168 -261 347 70 78 172 99 260 56z"/>
<path d="M3583 1050 c-111 -23 -195 -87 -246 -184 -28 -54 -32 -70 -32 -146 0
-73 4 -94 28 -146 101 -219 380 -267 551 -97 25 26 46 50 46 55 0 4 -32 8 -70
8 -56 0 -81 -5 -120 -25 -79 -40 -166 -31 -238 25 -29 23 -72 87 -72 108 0 9
62 12 275 12 l275 0 0 60 c0 93 -31 164 -104 235 -85 83 -189 117 -293 95z
m147 -131 c52 -23 86 -53 106 -91 31 -59 34 -58 -196 -58 -161 0 -210 3 -210
13 0 6 10 29 23 49 59 96 175 133 277 87z"/>
<path d="M4105 1048 c-3 -7 -4 -162 -3 -343 l3 -330 53 -3 52 -3 0 208 c1 262
11 298 102 344 72 37 162 13 210 -53 22 -32 23 -42 28 -263 l5 -230 55 0 55 0
5 225 c6 254 9 265 84 314 54 36 127 33 180 -8 67 -50 70 -66 76 -311 l5 -220
53 -3 52 -3 0 229 c0 257 -5 285 -65 358 -21 25 -59 54 -92 70 -104 51 -239
30 -320 -48 l-33 -32 -32 32 c-78 74 -211 97 -311 53 -59 -26 -55 -26 -59 2
-3 19 -10 22 -51 25 -32 2 -49 -1 -52 -10z"/>
<path d="M5163 1053 c-15 -5 -12 -12 67 -178 35 -71 89 -186 121 -254 65 -140
66 -113 -4 -261 -55 -115 -84 -140 -172 -150 l-50 -5 0 -55 0 -55 63 2 c78 2
139 30 189 87 25 28 76 124 145 272 59 126 143 306 187 399 44 94 81 176 83
184 4 18 -107 25 -120 7 -5 -6 -46 -92 -92 -191 -46 -99 -89 -189 -96 -199
-13 -19 -14 -18 -23 5 -11 30 -173 369 -185 387 -7 12 -82 15 -113 5z"/>
</g>
</svg>
